<svg width="120" height="28" viewBox="0 0 120 28" fill="none" xmlns="http://www.w3.org/2000/svg">
<path d="M112.28 23.6233C111.783 24.915 110.939 26.0577 109.895 26.952C108.902 27.6972 107.709 28.045 106.467 27.9953C106.02 27.9953 105.573 27.9456 105.126 27.8959C104.679 27.8462 104.232 27.7469 103.884 27.6475V24.3189C104.232 24.3685 104.53 24.3685 104.828 24.4182C105.126 24.4182 105.374 24.4679 105.623 24.4679C106.219 24.4679 106.765 24.3685 107.312 24.1201C107.908 23.7724 108.355 23.1762 108.604 22.5303L109.051 21.5367L103.486 7.82465H107.709L111.237 17.4131L115.012 7.82465H119.235L112.28 23.6233Z" fill="#1A1818"/>
<path d="M101.599 0.373047H97.624V22.7297H101.599V0.373047Z" fill="#1A1818"/>
<path d="M88.6791 7.6778C89.6231 7.6778 90.567 7.82684 91.4613 8.22429C92.2562 8.57206 93.0014 9.06887 93.5976 9.66505C94.1938 10.2612 94.6906 11.0064 94.9887 11.8013C95.3364 12.6459 95.4855 13.5402 95.4855 14.4345C95.4855 14.8319 95.4358 15.2294 95.3861 15.6268C95.3364 16.0243 95.2868 16.3224 95.1874 16.6204H85.0027C85.2014 17.5147 85.7479 18.2599 86.4932 18.7567C87.2881 19.2536 88.232 19.502 89.176 19.502C89.9212 19.502 90.6664 19.3529 91.3122 19.1045C92.0078 18.8064 92.604 18.4587 93.2001 18.0115L94.8396 20.6943C94.0447 21.3899 93.1505 21.8867 92.1568 22.2841C91.1632 22.6816 90.1199 22.8803 89.0269 22.8803C87.9339 22.8803 86.8409 22.6816 85.8473 22.2841C84.9034 21.9363 84.0588 21.3899 83.3135 20.6446C82.618 19.9491 82.0218 19.1542 81.6741 18.2102C81.2766 17.2663 81.0779 16.223 81.0779 15.2294C81.0282 12.1491 82.8664 9.36696 85.6983 8.22429C86.5925 7.87652 87.6358 7.6778 88.6791 7.6778ZM88.5301 10.8574C87.7352 10.8574 86.9403 11.1058 86.2944 11.6523C85.6486 12.1988 85.2014 12.9937 85.0027 13.7886H91.66C91.66 12.944 91.3123 12.1491 90.6664 11.6026C90.0702 11.1058 89.325 10.8574 88.5301 10.8574Z" fill="#1A1818"/>
<path d="M74.3214 7.67606C76.3086 7.62637 78.1965 8.42128 79.5379 9.86204L77.5507 12.2964C77.1035 11.8493 76.557 11.5015 76.0105 11.2531C75.464 11.0047 74.8679 10.9053 74.2717 10.9053C73.8742 10.9053 73.4768 10.955 73.129 11.1538C72.8309 11.3028 72.6819 11.6009 72.6819 11.9487C72.6819 12.2467 72.8309 12.4951 73.0297 12.6442C73.3774 12.8926 73.7749 13.0913 74.1723 13.2404L75.5634 13.8365C76.6564 14.234 77.6997 14.8302 78.594 15.6251C79.3392 16.3206 79.687 17.3142 79.6373 18.3079C79.6373 19.0034 79.4882 19.6989 79.1901 20.2951C78.8921 20.8416 78.4946 21.3384 77.9978 21.7359C77.4513 22.1333 76.8551 22.4314 76.2093 22.6301C74.4207 23.127 72.3838 22.9779 70.5953 22.1333C69.6016 21.6365 68.7571 20.941 68.0615 20.0964L70.0488 17.662C70.5953 18.2582 71.2411 18.7053 71.9367 19.1028C72.5825 19.4505 73.3774 19.6493 74.1226 19.6493C74.5698 19.6493 75.0169 19.5499 75.4144 19.3512C75.8118 19.2021 76.0105 18.8047 76.0105 18.4569C76.0105 18.1588 75.8615 17.8607 75.6131 17.7117C75.2653 17.513 74.9176 17.3142 74.5201 17.1652L72.98 16.5193C72.3838 16.2709 71.8373 16.0225 71.2908 15.7244C70.8437 15.476 70.3965 15.1779 70.0488 14.7805C69.701 14.4327 69.4526 14.0353 69.2539 13.5881C69.0552 13.0913 68.9558 12.5945 68.9558 12.0977C68.9558 11.4518 69.0552 10.806 69.3532 10.2098C69.6016 9.66331 69.9991 9.21618 70.4462 8.81873C70.943 8.42128 71.5392 8.12319 72.1354 7.97414C72.8806 7.72574 73.5762 7.62637 74.3214 7.67606Z" fill="#1A1818"/>
<path d="M66.3251 7.82465H62.3506V22.7291H66.3251V7.82465Z" fill="#1A1818"/>
<path d="M53.2583 22.7291H51.9666L44.7131 7.82465H48.9361L52.5628 16.0718L56.2889 7.82465H60.4621L53.2583 22.7291Z" fill="#1A1818"/>
<path d="M64.3369 0C65.7776 0 66.9203 1.14267 66.9203 2.58343C66.9203 2.58343 66.9203 2.58343 66.9203 2.63311C66.9203 3.32865 66.6719 3.97451 66.1751 4.47132C65.6782 4.96814 65.0324 5.21654 64.3369 5.21654C63.6413 5.21654 62.9955 4.96814 62.4986 4.47132C62.0018 3.97451 61.7037 3.32865 61.7534 2.63311C61.7534 1.93757 62.0018 1.24203 62.4986 0.745221C62.9458 0.248407 63.6413 0 64.3369 0Z" fill="#19A68E"/>
<path d="M18.6305 24.5922C8.34647 24.5922 0 16.2458 0 5.96173H7.4522C7.4522 12.1222 12.47 17.14 18.6305 17.14C24.791 17.14 29.8088 12.1222 29.8088 5.96173H37.261C37.261 16.2458 28.9146 24.5922 18.6305 24.5922Z" fill="#19A68E"/>
</svg>
